<mxfile host="app.diagrams.net" agent="Mozilla/5.0 (Windows NT 10.0; Win64; x64) AppleWebKit/537.36 (KHTML, like Gecko) Chrome/132.0.0.0 Safari/537.36 OPR/117.0.0.0" version="27.0.3">
  <diagram name="Page-1" id="0UUoirVoWQzLGi_5YT7J">
    <mxGraphModel dx="944" dy="564" grid="1" gridSize="10" guides="1" tooltips="1" connect="1" arrows="1" fold="1" page="1" pageScale="1" pageWidth="850" pageHeight="1100" math="0" shadow="0">
      <root>
        <mxCell id="0" />
        <mxCell id="1" parent="0" />
        <mxCell id="E52m9kGYUZ4MYLe2n1AO-3" value="" style="edgeStyle=orthogonalEdgeStyle;rounded=0;orthogonalLoop=1;jettySize=auto;html=1;" edge="1" parent="1" source="E52m9kGYUZ4MYLe2n1AO-1" target="E52m9kGYUZ4MYLe2n1AO-2">
          <mxGeometry relative="1" as="geometry" />
        </mxCell>
        <mxCell id="E52m9kGYUZ4MYLe2n1AO-10" value="Text" style="edgeLabel;html=1;align=center;verticalAlign=middle;resizable=0;points=[];" vertex="1" connectable="0" parent="E52m9kGYUZ4MYLe2n1AO-3">
          <mxGeometry x="-0.025" y="2" relative="1" as="geometry">
            <mxPoint as="offset" />
          </mxGeometry>
        </mxCell>
        <mxCell id="E52m9kGYUZ4MYLe2n1AO-1" value="Initalize" style="rounded=0;whiteSpace=wrap;html=1;" vertex="1" parent="1">
          <mxGeometry x="40" y="180" width="120" height="60" as="geometry" />
        </mxCell>
        <mxCell id="E52m9kGYUZ4MYLe2n1AO-5" value="" style="edgeStyle=orthogonalEdgeStyle;rounded=0;orthogonalLoop=1;jettySize=auto;html=1;" edge="1" parent="1" source="E52m9kGYUZ4MYLe2n1AO-2" target="E52m9kGYUZ4MYLe2n1AO-4">
          <mxGeometry relative="1" as="geometry" />
        </mxCell>
        <mxCell id="E52m9kGYUZ4MYLe2n1AO-11" value="3 Correct reactions" style="edgeLabel;html=1;align=center;verticalAlign=middle;resizable=0;points=[];" vertex="1" connectable="0" parent="E52m9kGYUZ4MYLe2n1AO-5">
          <mxGeometry x="-0.25" y="1" relative="1" as="geometry">
            <mxPoint x="15" y="-19" as="offset" />
          </mxGeometry>
        </mxCell>
        <mxCell id="E52m9kGYUZ4MYLe2n1AO-2" value="Waiting" style="rounded=0;whiteSpace=wrap;html=1;" vertex="1" parent="1">
          <mxGeometry x="200" y="180" width="120" height="60" as="geometry" />
        </mxCell>
        <mxCell id="E52m9kGYUZ4MYLe2n1AO-7" value="" style="edgeStyle=orthogonalEdgeStyle;rounded=0;orthogonalLoop=1;jettySize=auto;html=1;" edge="1" parent="1" source="E52m9kGYUZ4MYLe2n1AO-4" target="E52m9kGYUZ4MYLe2n1AO-6">
          <mxGeometry relative="1" as="geometry" />
        </mxCell>
        <mxCell id="E52m9kGYUZ4MYLe2n1AO-4" value="Calculating" style="rounded=0;whiteSpace=wrap;html=1;" vertex="1" parent="1">
          <mxGeometry x="440" y="180" width="120" height="60" as="geometry" />
        </mxCell>
        <mxCell id="E52m9kGYUZ4MYLe2n1AO-6" value="Display" style="whiteSpace=wrap;html=1;rounded=0;" vertex="1" parent="1">
          <mxGeometry x="640" y="180" width="120" height="60" as="geometry" />
        </mxCell>
        <mxCell id="E52m9kGYUZ4MYLe2n1AO-13" value="" style="curved=1;endArrow=classic;html=1;rounded=0;exitX=0.5;exitY=0;exitDx=0;exitDy=0;" edge="1" parent="1" source="E52m9kGYUZ4MYLe2n1AO-2">
          <mxGeometry width="50" height="50" relative="1" as="geometry">
            <mxPoint x="400" y="320" as="sourcePoint" />
            <mxPoint x="260" y="180" as="targetPoint" />
            <Array as="points">
              <mxPoint x="210" y="120" />
              <mxPoint x="320" y="90" />
            </Array>
          </mxGeometry>
        </mxCell>
        <mxCell id="E52m9kGYUZ4MYLe2n1AO-14" value="Any reaction is incorrect" style="text;html=1;align=center;verticalAlign=middle;whiteSpace=wrap;rounded=0;" vertex="1" parent="1">
          <mxGeometry x="195" y="70" width="130" height="30" as="geometry" />
        </mxCell>
      </root>
    </mxGraphModel>
  </diagram>
</mxfile>
